<svg width="64" height="64" viewBox="0 0 64 64" fill="none" xmlns="http://www.w3.org/2000/svg">
<g clip-path="url(#clip0_7_1195)">
<path d="M37.92 61.84C52.2352 61.84 63.84 50.2352 63.84 35.92C63.84 21.6048 52.2352 10 37.92 10C23.6048 10 12 21.6048 12 35.92C12 50.2352 23.6048 61.84 37.92 61.84Z" fill="#E4A517"/>
<path d="M30 4C13.44 4 0 17.44 0 34C0 50.56 13.44 64 30 64C46.56 64 60 50.56 60 34C60 17.44 46.56 4 30 4ZM30 60C15.66 60 4 48.34 4 34C4 19.66 15.66 8 30 8C44.34 8 56 19.66 56 34C56 48.34 44.34 60 30 60Z" fill="white"/>
<path d="M44.1 43.36L47.9 44.642C47.8 44.94 45.32 52 34 52C23.56 52 18.74 45.88 16.94 40H8L12 36H16.1C16.04 35.3 16 34.64 16 34C16 33.36 16.04 32.7 16.1 32H8L12 28H16.94C18.74 22.12 23.56 16 34 16C45.32 16 47.8 23.06 47.9 23.36L44.118 24.66C44.04 24.48 42.28 20 34 20C26.14 20 22.7 24.2 21.18 28H44L40 32H20.16C20.02 32.98 20 33.72 20 34C20 34.28 20.02 35.02 20.16 36H40L36 40H21.18C22.7 43.8 26.14 48 34 48C42.32 48 44.08 43.42 44.1 43.36Z" fill="white"/>
</g>
<defs>
<clipPath id="clip0_7_1195">
<rect width="64" height="64" fill="white"/>
</clipPath>
</defs>
</svg>
