<svg width="64" height="64" viewBox="0 0 64 64" fill="none" xmlns="http://www.w3.org/2000/svg">
<g clip-path="url(#clip0_7_1186)">
<path d="M37.92 61.84C52.2352 61.84 63.84 50.2352 63.84 35.92C63.84 21.6048 52.2352 10 37.92 10C23.6048 10 12 21.6048 12 35.92C12 50.2352 23.6048 61.84 37.92 61.84Z" fill="#E4A517"/>
<path d="M30 4C13.44 4 0 17.44 0 34C0 50.56 13.44 64 30 64C46.56 64 60 50.56 60 34C60 17.44 46.56 4 30 4ZM30 60C15.66 60 4 48.34 4 34C4 19.66 15.66 8 30 8C44.34 8 56 19.66 56 34C56 48.34 44.34 60 30 60Z" fill="white"/>
<path d="M36 24V22C35.98 21 35.64 16 30 16C24.54 16 24 18.9 24 26C24 27.48 23.78 29.6 23.44 32H36V36H22.82C22.04 40.52 21.06 45.24 20.48 48H40V52H15.5L16.04 49.56C16.06 49.44 17.6 42.56 18.74 36H12V32H19.38C19.76 29.56 20 27.42 20 26C20 20.1 20 12 30 12C37.92 12 40 18.54 40 22V24H36Z" fill="white"/>
</g>
<defs>
<clipPath id="clip0_7_1186">
<rect width="64" height="64" fill="white"/>
</clipPath>
</defs>
</svg>
