<svg width="64" height="64" viewBox="0 0 64 64" fill="none" xmlns="http://www.w3.org/2000/svg">
<g clip-path="url(#clip0_7_1100)">
<path d="M73.16 100.32C89.2646 100.32 102.32 87.2646 102.32 71.16C102.32 55.0554 89.2646 42 73.16 42C57.0554 42 44 55.0554 44 71.16C44 87.2646 57.0554 100.32 73.16 100.32Z" fill="#E4A517"/>
<path d="M16.78 29.56C21.629 29.56 25.56 25.629 25.56 20.78C25.56 15.9309 21.629 12 16.78 12C11.9309 12 8 15.9309 8 20.78C8 25.629 11.9309 29.56 16.78 29.56Z" fill="#E4A517"/>
<path d="M30 4C13.44 4 0 17.44 0 34C0 50.56 13.44 64 30 64C46.56 64 60 50.56 60 34C60 17.44 46.56 4 30 4ZM30 60C15.66 60 4 48.34 4 34C4 19.66 15.66 8 30 8C44.34 8 56 19.66 56 34C56 48.34 44.34 60 30 60Z" fill="white"/>
<path d="M40 28V26C40 22.86 38.28 17.16 32 16.18V12H28V16.2C24.48 16.88 20 19.44 20 26C20 30.8 24.04 33.22 28 35.22V47.678C26.22 47.158 24 45.758 24 41.998V39.998H20V41.998C20 48.558 24.48 51.118 28 51.798V56H32V51.8C35.52 51.118 40 48.56 40 42C40 37.2 35.96 34.78 32 32.78V20.26C35.7 21.28 35.98 25.1 36 26V28H40ZM28 30.7C25.46 29.26 24 27.94 24 26C24 22.24 26.22 20.84 28 20.32V30.7ZM36 42C36 45.76 33.78 47.16 32 47.68V37.3C34.54 38.74 36 40.06 36 42Z" fill="white"/>
</g>
<defs>
<clipPath id="clip0_7_1100">
<rect width="64" height="64" fill="white"/>
</clipPath>
</defs>
</svg>
